Coordinates
version=1
nRows=29
nColumns=24
inDegrees=yes

Units are S.I. units (second, meters, Newtons, ...)
Angles are in degrees.

endheader
time	pelvis_tilt	pelvis_list	pelvis_rotation	pelvis_tx	pelvis_ty	pelvis_tz	hip_flexion_r	hip_adduction_r	hip_rotation_r	knee_angle_r	ankle_angle_r	subtalar_angle_r	mtp_angle_r	hip_flexion_l	hip_adduction_l	hip_rotation_l	knee_angle_l	ankle_angle_l	subtalar_angle_l	mtp_angle_l	lumbar_extension	lumbar_bending	lumbar_rotation
      0.64200000	     -8.30754292	     -4.30260836	      3.75518637	     -0.41431692	      0.89761231	      0.32837039	     20.59887111	      8.59404906	     -4.98844417	    -23.94396366	     11.17308492	     -3.64217721	      4.24811831	     20.96601312	     -8.62156306	     -5.60461019	    -72.12325163	     -2.20881323	     -8.07335181	      0.78532172	      2.28273796	      4.66417391	     -0.93725810
      0.64616667	     -8.44785383	     -4.17023494	      3.75652074	     -0.40906287	      0.89851593	      0.32847719	     20.10978056	      8.50155858	     -4.88364968	    -23.43659521	     11.23045355	     -3.58803212	      4.24645207	     21.85161385	     -8.39041378	     -5.66760194	    -72.19720920	     -1.86333432	     -8.23535703	      0.77264665	      2.42850633	      4.51653663	     -0.81104571
      0.65033333	     -8.66147638	     -4.04120035	      3.73479490	     -0.40392208	      0.89923203	      0.32861415	     19.73662964	      8.41178092	     -4.75868941	    -22.98763144	     11.23746382	     -3.55856918	      4.24078063	     22.82547319	     -8.14917542	     -5.72477487	    -72.23199943	     -1.50493264	     -8.38914595	      0.74788307	      2.60814756	      4.37306655	     -0.57104480
      0.65450000	     -8.82270751	     -3.88885297	      3.69957451	     -0.39869668	      0.90005499	      0.32875542	     19.28367937	      8.30510260	     -4.62064647	    -22.50599825	     11.25974718	     -3.51356545	      4.23498228	     23.69441591	     -7.89274075	     -5.81935411	    -72.14295327	     -1.15879051	     -8.50400688	      0.72779873	      2.74973220	      4.20210096	     -0.34893225
      0.65866667	     -8.96515387	     -3.72786323	      3.64878196	     -0.39345690	      0.90089392	      0.32889975	     18.80740053	      8.19133182	     -4.47406217	    -22.01864287	     11.27624069	     -3.46214049	      4.22911319	     24.51722767	     -7.63073587	     -5.93590149	    -71.96763416	     -0.81267623	     -8.58426260	      0.71383605	      2.86926613	      4.02674315	     -0.12807939
      0.66283333	     -9.08495170	     -3.56102523	      3.58472321	     -0.38816803	      0.90175391	      0.32905244	     18.29729483	      8.07341366	     -4.33482941	    -21.51698850	     11.29650004	     -3.40138908	      4.22458271	     25.28362544	     -7.37196487	     -6.07974155	    -71.70033652	     -0.47818608	     -8.64075719	      0.70866219	      2.98088491	      3.84646798	      0.06260647
      0.66700000	     -9.21406576	     -3.38428484	      3.49581458	     -0.38293373	      0.90256548	      0.32925878	     17.80953926	      7.95509780	     -4.14086839	    -21.03221534	     11.31283608	     -3.36748187	      4.21405429	     26.04498712	     -7.10976973	     -6.23797110	    -71.36346512	     -0.15889684	     -8.64336503	      0.69927841	      3.07062125	      3.65088352	      0.46908876
      0.67116667	     -9.30362480	     -3.20022357	      3.40160237	     -0.37765758	      0.90343385	      0.32942433	     17.27337125	      7.82115709	     -3.98277497	    -20.53926487	     11.29298863	     -3.28044854	      4.20874816	     26.72846365	     -6.83828331	     -6.40920356	    -70.93200837	      0.18926172	     -8.66482008	      0.70337863	      3.11611058	      3.45939306	      0.63021016
      0.67533333	     -9.37817587	     -3.01057232	      3.28498240	     -0.37238515	      0.90428562	      0.32965108	     16.71862330	      7.69296286	     -3.77895952	    -20.03820372	     11.30784954	     -3.23790662	      4.19953805	     27.37522459	     -6.58321326	     -6.61241988	    -70.43305539	      0.50694234	     -8.61243763	      0.71603893	      3.15282768	      3.25408576	      1.02135309
      0.67950000	     -9.44764523	     -2.82634816	      3.17209070	     -0.36709093	      0.90511421	      0.32984432	     16.15926132	      7.55769999	     -3.62941104	    -19.53508616	     11.27889651	     -3.13776862	      4.19597824	     27.99665508	     -6.32986802	     -6.81308731	    -69.86171161	      0.82624099	     -8.60490999	      0.72716487	      3.20093885	      3.05718646	      1.15089508
      0.68366667	     -9.47176380	     -2.62454499	      3.02277578	     -0.36181349	      0.90599452	      0.33009700	     15.55356201	      7.42027101	     -3.39831370	    -19.03719382	     11.27810526	     -3.09187910	      4.18962710	     28.53261765	     -6.07676347	     -7.04507097	    -69.20395353	      1.13589157	     -8.50221699	      0.76030322	      3.15347139	      2.85466116	      1.59718699
      0.68783333	     -9.50738851	     -2.41951245	      2.87057414	     -0.35655151	      0.90681881	      0.33032891	     14.97116267	      7.26748177	     -3.20167558	    -18.55268433	     11.22629224	     -3.00322993	      4.18564833	     29.06418401	     -5.81657524	     -7.27728874	    -68.48000829	      1.44526901	     -8.42527881	      0.78813624	      3.13381520	      2.64925939	      1.82218464
      0.69200000	     -9.50516065	     -2.23472609	      2.71327312	     -0.35125209	      0.90764858	      0.33059336	     14.33454359	      7.14140688	     -2.99755546	    -18.03991508	     11.21916353	     -2.93982416	      4.18352982	     29.53687251	     -5.59776678	     -7.52257769	    -67.70058113	      1.72946244	     -8.31276259	      0.83402392	      3.07993131	      2.45366377	      2.19408249
      0.69616667	     -9.49999844	     -2.04309338	      2.54223759	     -0.34598451	      0.90844296	      0.33085613	     13.70753534	      7.00284886	     -2.79105834	    -17.54501047	     11.17904362	     -2.85689882	      4.18292972	     29.98526430	     -5.37262563	     -7.77237862	    -66.85430433	      2.00854602	     -8.19871055	      0.88704746	      3.01308162	      2.25879711	      2.50788412
      0.70033333	     -9.49681874	     -1.84213728	      2.36038027	     -0.34073351	      0.90919546	      0.33111478	     13.09604427	      6.84690880	     -2.59425418	    -17.07242706	     11.11464027	     -2.75679479	      4.18304549	     30.41227622	     -5.13836301	     -8.02832655	    -65.93765967	      2.27572280	     -8.08138367	      0.92236129	      2.95097809	      2.06108719	      2.72032559
      0.70450000	     -9.44309573	     -1.67059499	      2.17961077	     -0.33546163	      0.90996021	      0.33140224	     12.41151922	      6.72755886	     -2.38439907	    -16.55664483	     11.10330754	     -2.68412619	      4.18824041	     30.77295384	     -4.95216251	     -8.28653941	    -64.97859940	      2.52508430	     -7.92718158	      0.97980793	      2.83269795	      1.88219928	      3.10308617
      0.70866667	     -9.40248671	     -1.49260504	      1.99026421	     -0.33022107	      0.91065822	      0.33167310	     11.75870609	      6.59216725	     -2.18286557	    -16.06987335	     11.05657739	     -2.59400159	      4.19513099	     31.12786728	     -4.75580124	     -8.54453771	    -63.95525301	      2.75965965	     -7.77982384	      1.03851286	      2.72545355	      1.70257189	      3.40850156
      0.71283333	     -9.37021994	     -1.31170901	      1.78694418	     -0.32500300	      0.91129472	      0.33194234	     11.13079468	      6.44587229	     -1.98815748	    -15.60842086	     10.97586075	     -2.47984707	      4.20017143	     31.47031011	     -4.55714589	     -8.80392450	    -62.87013714	      2.97786143	     -7.63192790	      1.07898116	      2.62421710	      1.52480659	      3.63054617
      0.71700000	     -9.28790824	     -1.17066095	      1.59424517	     -0.31976900	      0.91192762	      0.33222772	     10.42805328	      6.34450778	     -1.78670239	    -15.10094051	     10.96314772	     -2.38823707	      4.21504935	     31.75298655	     -4.40914972	     -9.04705087	    -61.75481803	      3.18491584	     -7.46466001	      1.14921408	      2.46552432	      1.38707071	      4.02425092
      0.72116667	     -9.22845663	     -1.01795477	      1.39134693	     -0.31455787	      0.91247515	      0.33249890	      9.77029411	      6.22016636	     -1.60673901	    -14.62975371	     10.92152816	     -2.27575091	      4.23003768	     32.03743578	     -4.24826069	     -9.29727803	    -60.57527559	      3.36841301	     -7.30361679	      1.21206530	      2.34100746	      1.23428561	      4.30323619
      0.72533333	     -9.15889609	     -0.88187640	      1.18895115	     -0.30936052	      0.91297146	      0.33275206	      9.10681474	      6.10653330	     -1.43583176	    -14.16392516	     10.88275975	     -2.14680104	      4.24832364	     32.29720428	     -4.10144377	     -9.53259621	    -59.35014031	      3.53449373	     -7.13891508	      1.27632223	      2.19872218	      1.10561455	      4.58814746
      0.72950000	     -9.10877035	     -0.74169772	      0.97631019	     -0.30418870	      0.91338166	      0.33300254	      8.48105491	      5.98036502	     -1.27469649	    -13.72656418	     10.81591605	     -2.00362427	      4.26128477	     32.55784550	     -3.95105855	     -9.76808501	    -58.06592462	      3.67613918	     -6.97613787	      1.31892650	      2.07697716	      0.97071407	      4.79908604
      0.73366667	     -9.04043964	     -0.62553864	      0.77504248	     -0.29900674	      0.91374476	      0.33323916	      7.82917497	      5.87545002	     -1.12888584	    -13.27497989	     10.78334854	     -1.84967457	      4.27675715	     32.78765839	     -3.82402139	     -9.98605189	    -56.74627883	      3.80220648	     -6.81151444	      1.35915837	      1.93748942	      0.85943541	      5.04248139
      0.73783333	     -8.95168568	     -0.54219264	      0.58244995	     -0.29383034	      0.91405374	      0.33345926	      7.14881583	      5.80116512	     -0.99323792	    -12.80727007	     10.80287675	     -1.69204851	      4.30844266	     32.98940102	     -3.72876805	    -10.18153263	    -55.39879103	      3.91885165	     -6.65101843	      1.42586483	      1.77173997	      0.79481570	      5.39655097
      0.74200000	     -8.89188529	     -0.45357500	      0.38319101	     -0.28866775	      0.91426255	      0.33365927	      6.51822185	      5.71228844	     -0.87352966	    -12.37379969	     10.78625756	     -1.51257542	      4.34276931	     33.20004158	     -3.62389048	    -10.37334424	    -53.99480774	      4.00460379	     -6.49653405	      1.48918991	      1.64029584	      0.71743287	      5.65723722
      0.74616667	     -8.85157995	     -0.36856746	      0.18229863	     -0.28352065	      0.91437893	      0.33384620	      5.92432939	      5.61977231	     -0.77503667	    -11.96808631	     10.74756558	     -1.32746405	      4.36552467	     33.41235213	     -3.52283153	    -10.56302269	    -52.54018186	      4.05953453	     -6.33382036	      1.52659351	      1.53913877	      0.64323558	      5.83622819
      0.75033333	     -8.79380068	     -0.30546473	     -0.00972434	     -0.27836114	      0.91444144	      0.33401342	      5.30438220	      5.54615807	     -0.68817694	    -11.54932371	     10.74853500	     -1.12177097	      4.39320044	     33.59408550	     -3.44040424	    -10.73472385	    -51.05530506	      4.10087654	     -6.18375741	      1.56323176	      1.41131816	      0.59425718	      6.05925447
      0.75450000	     -8.75304798	     -0.25204693	     -0.19842196	     -0.27320381	      0.91440722	      0.33415769	      4.71177025	      5.47691455	     -0.61768061	    -11.14785376	     10.75700360	     -0.90805640	      4.42290337	     33.77801259	     -3.36389195	    -10.89494292	    -49.53243453	      4.11743016	     -6.03604207	      1.59592217	      1.30523215	      0.55726661	      6.27693203
      0.75866667	     -8.70833851	     -0.21731176	     -0.38260017	     -0.26804743	      0.91430289	      0.33428301	      4.11853679	      5.42324710	     -0.55781380	    -10.75550949	     10.79347891	     -0.67368924	      4.46162204	     33.94305662	     -3.30221202	    -11.03804759	    -47.97730430	      4.11195839	     -5.90315876	      1.63159443	      1.20142948	      0.54133487	      6.51536141
